<svg xmlns="http://www.w3.org/2000/svg" xmlns:xlink="http://www.w3.org/1999/xlink" width="100" zoomAndPan="magnify" viewBox="0 0 75 74.999997" height="100" preserveAspectRatio="xMidYMid meet" version="1.0"><path fill="rgb(100%, 100%, 100%)" d="M 37.5 0 C 16.789062 0 0 16.789062 0 37.5 C 0 58.210938 16.789062 75 37.5 75 C 58.210938 75 75 58.210938 75 37.5 C 75 16.789062 58.210938 0 37.5 0 " fill-opacity="1" fill-rule="nonzero"/><path fill="rgb(7.839966%, 13.729858%, 86.268616%)" d="M 35.175781 39.625 C 37.101562 36.148438 40.800781 34.101562 42.949219 31.023438 C 45.226562 27.800781 43.949219 21.773438 37.5 21.773438 C 33.273438 21.773438 31.199219 24.976562 30.324219 27.625 L 23.851562 24.898438 C 25.625 19.574219 30.449219 15 37.476562 15 C 43.351562 15 47.375 17.675781 49.425781 21.023438 C 51.175781 23.898438 52.199219 29.273438 49.5 33.273438 C 46.5 37.699219 43.625 39.050781 42.074219 41.898438 C 41.449219 43.050781 41.199219 43.800781 41.199219 47.5 L 33.976562 47.5 C 33.949219 45.550781 33.648438 42.375 35.175781 39.625 Z M 42.5 57.5 C 42.5 60.25 40.25 62.5 37.5 62.5 C 34.75 62.5 32.5 60.25 32.5 57.5 C 32.5 54.75 34.75 52.5 37.5 52.5 C 40.25 52.5 42.5 54.75 42.5 57.5 Z M 42.5 57.5 " fill-opacity="1" fill-rule="nonzero"/></svg>