<svg xmlns="http://www.w3.org/2000/svg" xmlns:xlink="http://www.w3.org/1999/xlink" width="40" zoomAndPan="magnify" viewBox="0 0 30 30.000001" height="40" preserveAspectRatio="xMidYMid meet" version="1.0"><defs><clipPath id="id1"><path d="M 0.484375 0 L 29.515625 0 L 29.515625 29.03125 L 0.484375 29.03125 Z M 0.484375 0 " clip-rule="nonzero"/></clipPath></defs><g clip-path="url(#id1)"><path fill="rgb(100%, 100%, 100%)" d="M 0.484375 0 L 29.515625 0 L 29.515625 36.289062 L 0.484375 36.289062 Z M 0.484375 0 " fill-opacity="1" fill-rule="nonzero"/><path fill="rgb(100%, 100%, 100%)" d="M 0.484375 0 L 29.515625 0 L 29.515625 29.03125 L 0.484375 29.03125 Z M 0.484375 0 " fill-opacity="1" fill-rule="nonzero"/><path fill="rgb(100%, 100%, 100%)" d="M 0.484375 0 L 29.515625 0 L 29.515625 29.03125 L 0.484375 29.03125 Z M 0.484375 0 " fill-opacity="1" fill-rule="nonzero"/><path fill="rgb(100%, 100%, 100%)" d="M 0.484375 0 L 29.515625 0 L 29.515625 29.03125 L 0.484375 29.03125 Z M 0.484375 0 " fill-opacity="1" fill-rule="nonzero"/><path fill="rgb(58.81958%, 80.389404%, 19.60907%)" d="M 15 0 C 6.984375 0 0.484375 6.5 0.484375 14.515625 C 0.484375 22.53125 6.984375 29.03125 15 29.03125 C 23.015625 29.03125 29.515625 22.53125 29.515625 14.515625 C 29.515625 6.5 23.015625 0 15 0 " fill-opacity="1" fill-rule="nonzero"/></g><path fill="rgb(100%, 100%, 100%)" d="M 14.878906 3.824219 C 9.039062 3.824219 4.304688 8.566406 4.304688 14.40625 C 4.304688 20.25 9.039062 24.992188 14.878906 24.992188 C 20.734375 24.992188 25.476562 20.25 25.476562 14.40625 C 25.476562 8.566406 20.734375 3.824219 14.878906 3.824219 Z M 14.890625 22.875 C 10.210938 22.875 6.421875 19.085938 6.421875 14.40625 C 6.421875 9.730469 10.210938 5.941406 14.890625 5.941406 C 19.570312 5.941406 23.359375 9.730469 23.359375 14.40625 C 23.359375 19.085938 19.570312 22.875 14.890625 22.875 Z M 18.597656 13.347656 C 19.472656 13.347656 20.183594 12.640625 20.183594 11.761719 C 20.183594 10.882812 19.472656 10.171875 18.597656 10.171875 C 17.71875 10.171875 17.007812 10.882812 17.007812 11.761719 C 17.007812 12.640625 17.71875 13.347656 18.597656 13.347656 Z M 11.1875 13.347656 C 12.066406 13.347656 12.773438 12.640625 12.773438 11.761719 C 12.773438 10.882812 12.066406 10.171875 11.1875 10.171875 C 10.308594 10.171875 9.597656 10.882812 9.597656 11.761719 C 9.597656 12.640625 10.308594 13.347656 11.1875 13.347656 Z M 14.890625 20.230469 C 17.355469 20.230469 19.453125 18.683594 20.300781 16.523438 L 9.480469 16.523438 C 10.328125 18.683594 12.425781 20.230469 14.890625 20.230469 Z M 14.890625 20.230469 " fill-opacity="1" fill-rule="nonzero"/></svg>