<svg xmlns="http://www.w3.org/2000/svg" xmlns:xlink="http://www.w3.org/1999/xlink" width="100" zoomAndPan="magnify" viewBox="0 0 75 74.999997" height="100" preserveAspectRatio="xMidYMid meet" version="1.0"><path fill="rgb(100%, 100%, 100%)" d="M 37.5 0 C 16.789062 0 0 16.789062 0 37.5 C 0 58.210938 16.789062 75 37.5 75 C 58.210938 75 75 58.210938 75 37.5 C 75 16.789062 58.210938 0 37.5 0 " fill-opacity="1" fill-rule="nonzero"/><path fill="rgb(7.839966%, 13.729858%, 86.268616%)" d="M 31.25 26.25 L 31.25 48.75 L 48.75 37.5 Z M 31.25 26.25 " fill-opacity="1" fill-rule="nonzero"/><path fill="rgb(7.839966%, 13.729858%, 86.268616%)" d="M 57.5 17.5 L 17.5 17.5 C 14.75 17.5 12.5 19.75 12.5 22.5 L 12.5 52.5 C 12.5 55.25 14.75 57.5 17.5 57.5 L 57.5 57.5 C 60.25 57.5 62.5 55.25 62.5 52.5 L 62.5 22.5 C 62.5 19.75 60.25 17.5 57.5 17.5 Z M 57.5 52.523438 L 17.5 52.523438 L 17.5 22.476562 L 57.5 22.476562 Z M 57.5 52.523438 " fill-opacity="1" fill-rule="nonzero"/></svg>